<?xml version="1.0" encoding="UTF-8"?>
<!DOCTYPE svg PUBLIC "-//W3C//DTD SVG 1.1//EN" "http://www.w3.org/Graphics/SVG/1.1/DTD/svg11.dtd">
<!-- Creator: CorelDRAW -->
<svg xmlns="http://www.w3.org/2000/svg" xml:space="preserve" width="0.80496cm" height="1.27cm" version="1.1" style="shape-rendering:geometricPrecision; text-rendering:geometricPrecision; image-rendering:optimizeQuality; fill-rule:evenodd; clip-rule:evenodd"
viewBox="0 0 1.42 2.24"
 xmlns:xlink="http://www.w3.org/1999/xlink"
 xmlns:xodm="http://www.corel.com/coreldraw/odm/2003">
 <defs>
  <style type="text/css">
   <![CDATA[
    .fil0 {fill:#D31010}
   ]]>
  </style>
 </defs>
 <g id="Camada_x0020_1">
  <metadata id="CorelCorpID_0Corel-Layer"/>
  <path class="fil0" d="M0.36 1.62c0,-0.05 0.01,-0.08 0.03,-0.12 0.01,-0.03 0.05,-0.07 0.06,-0.09 0.11,-0.1 0.49,-0.18 0.58,-0.24 0.02,-0.02 0.03,-0.03 0.04,-0.04 0,0.1 -0,0.19 -0,0.29 0,0.26 0.04,0.51 -0.34,0.51 -0.24,0 -0.37,-0.05 -0.37,-0.31zm-0.01 -1.02c0.04,-0.06 -0,-0.27 0.32,-0.29 0.49,-0.02 0.43,0.35 0.35,0.46 -0.05,0.07 -0.1,0.08 -0.19,0.12 -0.15,0.05 -0.3,0.11 -0.44,0.16 -0.18,0.06 -0.27,0.12 -0.34,0.27 -0.06,0.12 -0.06,0.4 -0.03,0.54 0.07,0.32 0.44,0.41 0.82,0.38 0.09,-0.01 0.17,-0.02 0.25,-0.05 0.29,-0.11 0.33,-0.28 0.33,-0.58 0,-0.12 0.01,-1.1 -0.01,-1.2 -0.03,-0.16 -0.15,-0.27 -0.28,-0.33 -0.25,-0.11 -0.73,-0.11 -0.97,0.08 -0.12,0.09 -0.18,0.28 -0.15,0.44 0.03,0.01 0.29,0.01 0.34,0z"/>
 </g>
</svg>
